<?xml version="1.0" encoding="UTF-8" standalone="no"?>
<!-- Created with Inkscape (http://www.inkscape.org/) -->

<svg
   xmlns:dc="http://purl.org/dc/elements/1.1/"
   xmlns:cc="http://creativecommons.org/ns#"
   xmlns:rdf="http://www.w3.org/1999/02/22-rdf-syntax-ns#"
   xmlns:svg="http://www.w3.org/2000/svg"
   xmlns="http://www.w3.org/2000/svg"
   xmlns:sodipodi="http://sodipodi.sourceforge.net/DTD/sodipodi-0.dtd"
   xmlns:inkscape="http://www.inkscape.org/namespaces/inkscape"
   width="400"
   height="400"
   viewBox="0 0 105.83333 105.83333"
   version="1.1"
   id="svg5670"
   inkscape:version="0.92.1 r15371"
   sodipodi:docname="adapp_logo7.svg"
   inkscape:export-filename="/home/nkl/WS/WSADAPP/comingsoon-adapp-tech/static/adapp_logo_3.png"
   inkscape:export-xdpi="96"
   inkscape:export-ydpi="96">
  <sodipodi:namedview
     id="base"
     pagecolor="#ffffff"
     bordercolor="#666666"
     borderopacity="1.0"
     inkscape:pageopacity="0.0"
     inkscape:pageshadow="2"
     inkscape:zoom="1.4"
     inkscape:cx="65.671383"
     inkscape:cy="201.23995"
     inkscape:document-units="mm"
     inkscape:current-layer="layer1"
     showgrid="false"
     units="px"
     width="640px"
     inkscape:window-width="1914"
     inkscape:window-height="1074"
     inkscape:window-x="3840"
     inkscape:window-y="0"
     inkscape:window-maximized="0"
     inkscape:snap-text-baseline="true"
     inkscape:snap-grids="true" />
  <defs
     id="defs5664" />
  <metadata
     id="metadata5667">
    <rdf:RDF>
      <cc:Work
         rdf:about="">
        <dc:format>image/svg+xml</dc:format>
        <dc:type
           rdf:resource="http://purl.org/dc/dcmitype/StillImage" />
        <dc:title></dc:title>
      </cc:Work>
    </rdf:RDF>
  </metadata>
  <g
     inkscape:label="Layer 2"
     id="layer2"
     inkscape:groupmode="layer" />
  <g
     inkscape:label="Layer 1"
     inkscape:groupmode="layer"
     id="layer1"
     transform="translate(0,-191.16666)">
    <g
       transform="matrix(1.9323841,0,0,1.8444957,-38.841783,-222.73604)"
       style="fill:#000032;fill-opacity:1;stroke:none;stroke-width:0.35202476;stroke-opacity:1;paint-order:fill markers stroke"
       id="g7070"
       inkscape:export-xdpi="96"
       inkscape:export-ydpi="96">
      <g
         transform="translate(-0.63476513,3.1738256)"
         style="fill:#000032;fill-opacity:1;stroke:none;stroke-width:0.35202476;stroke-opacity:1"
         id="g7074">
        <path
           inkscape:connector-curvature="0"
           id="path7102"
           d="m 50.480531,250.26123 h -9.68852 l -1.603618,4.54358 h 11.425774"
           style="fill:#000032;fill-opacity:1;stroke:none;stroke-width:0.09313988px;stroke-linecap:butt;stroke-linejoin:miter;stroke-opacity:1" />
      </g>
    </g>
    <path
       inkscape:connector-curvature="0"
       id="path7104"
       d="M 42.156628,196.92201 3.2338915,289.25666 H 13.823162 l 38.493449,-92.33465 z"
       style="fill:#000032;fill-opacity:1;fill-rule:evenodd;stroke:none;stroke-width:0.19959964;stroke-linecap:butt;stroke-linejoin:miter;stroke-miterlimit:4;stroke-dasharray:none;stroke-opacity:1"
       inkscape:export-xdpi="96"
       inkscape:export-ydpi="96" />
    <rect
       style="fill:#000032;fill-opacity:1;fill-rule:nonzero;stroke:none;stroke-width:0.26499996;stroke-miterlimit:4;stroke-dasharray:none;stroke-dashoffset:0;stroke-opacity:1"
       id="rect8620"
       width="38.177326"
       height="15.040821"
       x="56.550453"
       y="273.58673"
       inkscape:export-xdpi="96"
       inkscape:export-ydpi="96" />
  </g>
  <g
     inkscape:label="Layer 3"
     id="layer3"
     inkscape:groupmode="layer">
    <path
       id="path7840"
       style="fill:#000032;fill-opacity:1;stroke:none;stroke-width:0.26499996;stroke-linecap:butt;stroke-linejoin:miter;stroke-miterlimit:4;stroke-dasharray:none;stroke-opacity:1"
       d="M 56.550451,5.7558305 V 97.460916 h 8.588748 V 14.808884 C 84.948164,24.19797 93.65107,52.212961 93.992794,97.460888 l 8.179766,-0.01787 C 103.93911,28.743246 77.813069,8.2320989 56.550451,5.7558305 Z"
       inkscape:connector-curvature="0"
       sodipodi:nodetypes="ccccccc"
       inkscape:export-xdpi="96"
       inkscape:export-ydpi="96" />
    <g
       aria-label="αpp"
       transform="matrix(1.9597079,0,0,2.2398702,-50.058996,-34.190711)"
       style="font-style:italic;font-variant:normal;font-weight:normal;font-stretch:normal;font-size:7.98985386px;line-height:1.25;font-family:sans-serif;-inkscape-font-specification:'sans-serif, Italic';font-variant-ligatures:normal;font-variant-caps:normal;font-variant-numeric:normal;font-feature-settings:normal;text-align:start;letter-spacing:0px;word-spacing:0px;writing-mode:lr-tb;text-anchor:start;opacity:0.98999999;fill:#fffffd;fill-opacity:1;stroke:#ffffff;stroke-width:0.06974281;stroke-opacity:1"
       id="text10262"
       inkscape:export-xdpi="96"
       inkscape:export-ydpi="96">
      <path
         d="m 61.39308,54.793955 0.0039,-0.901199 q 0.0039,-0.920706 -0.69053,-0.924607 -0.518872,-0.0039 -0.84268,0.429142 -0.405734,0.534478 -0.54228,1.248415 -0.167755,0.858285 0.04292,1.267921 0.218472,0.417439 0.690529,0.417439 0.522774,0 0.96362,-0.830976 z m -0.565687,-2.434408 q 1.217204,-0.01951 1.201599,1.240612 0,0 0.608602,-1.14308 h 0.639812 l -1.260118,2.368087 -0.0117,0.854383 q 0,0.191164 0.105335,0.351117 0.12094,0.187262 0.245782,0.187262 h 0.347215 l -0.117039,0.608602 h -0.433044 q -0.366722,0 -0.63201,-0.327708 -0.124841,-0.163855 -0.128743,-0.507169 -0.253584,0.417439 -0.690529,0.772457 -0.206769,0.163854 -0.764654,0.159953 -0.912903,-0.0078 -1.244513,-0.592997 -0.339413,-0.608602 -0.128743,-1.68536 0.226275,-1.158685 0.819272,-1.68536 0.667122,-0.589095 1.44348,-0.600799 z"
         style="font-style:italic;font-variant:normal;font-weight:normal;font-stretch:normal;font-size:7.98985386px;font-family:sans-serif;-inkscape-font-specification:'sans-serif, Italic';font-variant-ligatures:normal;font-variant-caps:normal;font-variant-numeric:normal;font-feature-settings:normal;text-align:start;writing-mode:lr-tb;text-anchor:start;fill:#fffffd;fill-opacity:1;stroke:#ffffff;stroke-width:0.06974281;stroke-opacity:1"
         id="path4552"
         inkscape:connector-curvature="0" />
      <path
         d="m 67.362063,54.134636 q 0,-0.57349 -0.249683,-0.877791 -0.249683,-0.304301 -0.717838,-0.304301 -0.319907,0 -0.612504,0.163854 -0.288696,0.163855 -0.514971,0.475958 -0.222374,0.308203 -0.355018,0.745148 -0.132644,0.436945 -0.132644,0.866087 0,0.546182 0.249683,0.84268 0.249683,0.292597 0.710036,0.292597 0.339413,0 0.628109,-0.159953 0.292597,-0.159953 0.499365,-0.464254 0.222374,-0.319906 0.35892,-0.75295 0.136545,-0.433044 0.136545,-0.827075 z m -2.223739,-1.014337 q 0.288696,-0.378425 0.678826,-0.57349 0.394031,-0.195065 0.87389,-0.195065 0.671023,0 1.041646,0.440847 0.370623,0.436945 0.370623,1.228908 0,0.647615 -0.230176,1.236711 -0.230177,0.585194 -0.663221,1.049448 -0.288695,0.308202 -0.651516,0.472057 -0.36282,0.159953 -0.764654,0.159953 -0.464254,0 -0.780259,-0.191163 -0.316005,-0.195065 -0.472057,-0.577392 l -0.448649,2.317369 h -0.717838 l 1.17429,-6.031403 h 0.717838 z"
         style="font-style:italic;font-variant:normal;font-weight:normal;font-stretch:normal;font-size:7.98985386px;font-family:sans-serif;-inkscape-font-specification:'sans-serif, Italic';font-variant-ligatures:normal;font-variant-caps:normal;font-variant-numeric:normal;font-feature-settings:normal;text-align:start;writing-mode:lr-tb;text-anchor:start;fill:#fffffd;fill-opacity:1;stroke:#ffffff;stroke-width:0.06974281;stroke-opacity:1"
         id="path4554"
         inkscape:connector-curvature="0" />
      <path
         d="m 72.433747,54.134636 q 0,-0.57349 -0.249683,-0.877791 -0.249683,-0.304301 -0.717838,-0.304301 -0.319906,0 -0.612503,0.163854 -0.288696,0.163855 -0.514972,0.475958 -0.222373,0.308203 -0.355017,0.745148 -0.132644,0.436945 -0.132644,0.866087 0,0.546182 0.249682,0.84268 0.249683,0.292597 0.710036,0.292597 0.339413,0 0.628109,-0.159953 0.292597,-0.159953 0.499366,-0.464254 0.222374,-0.319906 0.358919,-0.75295 0.136545,-0.433044 0.136545,-0.827075 z m -2.223738,-1.014337 q 0.288696,-0.378425 0.678825,-0.57349 0.394031,-0.195065 0.87389,-0.195065 0.671023,0 1.041646,0.440847 0.370624,0.436945 0.370624,1.228908 0,0.647615 -0.230177,1.236711 -0.230176,0.585194 -0.66322,1.049448 -0.288696,0.308202 -0.651517,0.472057 -0.36282,0.159953 -0.764654,0.159953 -0.464254,0 -0.780259,-0.191163 -0.316005,-0.195065 -0.472057,-0.577392 l -0.448649,2.317369 h -0.717838 l 1.17429,-6.031403 h 0.717838 z"
         style="font-style:italic;font-variant:normal;font-weight:normal;font-stretch:normal;font-size:7.98985386px;font-family:sans-serif;-inkscape-font-specification:'sans-serif, Italic';font-variant-ligatures:normal;font-variant-caps:normal;font-variant-numeric:normal;font-feature-settings:normal;text-align:start;writing-mode:lr-tb;text-anchor:start;fill:#fffffd;fill-opacity:1;stroke:#ffffff;stroke-width:0.06974281;stroke-opacity:1"
         id="path4556"
         inkscape:connector-curvature="0" />
    </g>
    <path
       style="fill:#000032;fill-opacity:1;stroke:#000032;stroke-width:1.96500003;stroke-linecap:butt;stroke-linejoin:miter;stroke-miterlimit:4;stroke-dasharray:none;stroke-opacity:1"
       d="M 88.836708,82.949544 86.712627,96.227073"
       id="path4579"
       inkscape:connector-curvature="0"
       inkscape:export-xdpi="96"
       inkscape:export-ydpi="96" />
    <path
       style="fill:#000032;fill-opacity:1;stroke:#000032;stroke-width:1.86500001;stroke-linecap:butt;stroke-linejoin:miter;stroke-miterlimit:4;stroke-dasharray:none;stroke-opacity:1"
       d="M 78.846673,82.666742 76.722592,96.196751"
       id="path4579-3"
       inkscape:connector-curvature="0"
       inkscape:export-xdpi="96"
       inkscape:export-ydpi="96" />
    <path
       style="fill:#000032;fill-opacity:1;stroke:#000032;stroke-width:1.86500001;stroke-linecap:butt;stroke-linejoin:miter;stroke-miterlimit:4;stroke-dasharray:none;stroke-opacity:1"
       d="m 69.244414,87.938985 0.01075,2.814892 0.0162,4.252764"
       id="path4579-3-6"
       inkscape:connector-curvature="0"
       sodipodi:nodetypes="ccc"
       inkscape:export-xdpi="96"
       inkscape:export-ydpi="96" />
  </g>
</svg>
